<svg xmlns="http://www.w3.org/2000/svg" enable-background="new 0 0 495.1 503.4" viewBox="0 0 495.1 503.4"><path fill="#e1f0ff" d="M338 437.2c1.3.9 2.8 1.4 4.4 1.2 7.3 0 14.7.7 22 .7 3.3 0 6.7.5 10 .4 9.6-.5 19.2-.7 28.7-3 6.9-1.8 14.1-2.5 21.3-1.9 5.5.5 10.8 2.2 15.5 4.9 3.5 2 6.7 4.3 8.9 7.8 1.7 2.7 2.6 5.8 2.6 9v5.3c.1 10-4.6 17.3-13 22.5-2 1.3-4.1 2.6-6.1 3.9-2.4 1.5-5 2.5-7.7 3-2 .5-3.9 1.3-5.8 2-8.7 3-17.7 4.8-26.7 6.5-5.6 1-11.3 1.8-17 2.6-2.8.4-5.7.4-8.6.7-6.6.7-13.2.8-19.8.4-4.5-.3-9.1-.3-13.6-.8-5.3-.5-10.5-1.2-15.7-1.9-6.4-.9-12.8-1.9-19.1-3.3-9.5-2-18.9-4.6-28.1-7.8-7.3-2.6-14.5-5.4-21-9.6-4.3-2.7-8.5-5.6-11.4-10.1-4.5-6.9-3.1-14.2 1.7-19.8 2.8-3.2 6.5-5.2 10.4-6.9 7-2.9 14.4-4.8 22-5.7 3.2-.5 6.5-.8 9.7-.7 1.8 0 3.7-.2 5.5-.5 1.3 0 1.6 1.1 2.1 1.9 1.7 2.8 3.2 5.6 4.5 8.6 1.6 3.6 3.7 7 6 10.1-.1 1.7-.3 3.4-.7 5-.6 3.6.5 6.4 3.7 8.3 5.9 3.5 12.5 5.3 19.2 6.6 3 .5 6.1.8 9.2.7 6-.1 12.1.2 18.1 1 6.1.6 12.3-.2 18.1-2.5 1.2 0 2.5 0 3.7.3-.4-1.1-1.5-1.5-1.7-2.5s.2-2.1.3-3.2c0-.8-.2-1.6-.5-2.3-.4-1.1-.3-2 1-2.3.7-.2 1.4.2 2.3-.4-2.5-3-6.7-1.9-9.4-4-8.7-5.8-18-6.6-27.6-2.8-2 .8-3.9 1.7-5.9 2.5-3 1.3-4.4.2-3.8-2.9.5-3.6 1.6-7.1 3.3-10.3 2.6-2.2 4.7-5 6.1-8.1.7-1 1.2-2.4 2.9-2.6z"/><path fill="#38a1fc" d="M305 95.5c.5.4 1.2.2 1.8.4 1.3.9 2.3-.3 3.5-.4.7-.1 1.3.3 1.9.2.7.7 1.9.8 2.7.3.5-.3 1.1-1 1.9-.3 2.6.9 5.4 1 8.1 1.6 6.1 1.2 11.7 3.9 17.2 6.7.2 1.8 1.7.7 2.5 1.2.2.9 1 1.2 1.7 1.6-.9 3 1.6 1 2.3 1.6.5 1.2 1 2.4 2.6 2.3-.5 1.7-.5 1.7.8 2.3.1.3.2.5.4.8 3.7 4.5 4.8 9.7 4.8 15.3 0 2.4.3 4.8.5 7.2.4 3.3-.1 6.7-1.4 9.8-.4.9-.6 1.5.5 2 6.4 2.9 9.4 8.4 11.4 14.7 1.3 4.4 1.7 9 1.3 13.5-1.1 1.1-2.3.3-3.4.1-1.9-.5-3.9-1.1-6.3-.7 3.4 1.4 7.2.4 9.5 3.5.3.8.3 1.7 0 2.5-1.1 1.2-2 .2-3-.2-1.5-.6-2.9-1.7-5.3-1.9 1.5 1.4 3 1.7 4.1 2.4s2.8 1.1 3.3 2.8c-.3.7-.9 1.3-1.7 1.6-1.9.4-2.5-1.6-4.2-2.1.9 2.1 3.5 2.7 3.7 5.1-.7.9-1 2-1.8 2.9-1.7-.3-1.6-2.1-2.6-3-.8-.8-1.2-1.9-2.5-2.7.6 1.8 1.7 2.9 2.4 4.3.5 1 1.6 1.9 1 3.3-2.9 3.1-6.4 5.5-10.3 7-2 .6-3.3 2.6-3 4.7.1 1.3.8 3.1-1.3 3.7-1.1-1.6-.6-3.4-.6-5.1 0-1.3-.4-1.5-1.4-.9-7.6 4.6-16 5.8-24.6 6.8-3.2.3-6.5 0-9.5 1.4-.6.3-1.3.1-1.6-.5-.4-.6-1.3-.8-1.9-.4-1 0-2-.1-3-.4-1-.7-2.1-.3-3.2-.4-5.4-2.6-10.7-5.2-15.2-9.1-.9-.6-1.6-1.3-2.2-2.1-.9-5.9-4.3-10.4-8.4-14.4-1.6-1.4-3.2-2.9-4.5-4.5-.2-1.2-.9-2.2-2-2.8-3.5-2-6.5-4.8-9.8-7.2-5.4-3.8-10.4-8.4-15.5-12.6-.8-.6-1.2-1.5-1-2.4.1-1.6.5-3.1 1.3-4.5 2.2-3.4 4.7-6.7 7.4-9.7 4.6-2.6 9.8-4.1 15.1-4.5 3.5-.1 7.1.2 10.5.8 7.5 1.1 14.8 2.8 22.4 2.4 2.1 0 4.3-.4 6.3-1.1 1.8-.7 2.3-1.9 1.7-3.8-1.7-5-6.3-7.1-11.2-5-2.3.9-4.2 2.4-5.8 4.2-2.6 3-5.7 3.9-9.5 3-3.6-.8-7.3-1.2-11.1-1.4-4.9-.2-9.7.5-14.3 2.2-.8.3-1.8 1-2.6.1s-.2-2 .2-2.9c3.1-6.8 7-13.2 12.5-18.3.9-.8 2.4-1.6 1-3.2-.2-.2-.3-.5-.4-.7 1.3-.5 2.5-1.2 3.5-2.1 8.9-7 18.5-12.7 30-14.1.4-.1.7-.2 1.1-.3.9-.1 2-.7 3.2-.6z"/><path d="M272.1 179.8c2 1.8 4 3.6 5.9 5.4 2.1 2.1 3.9 4.5 5.2 7.1 1.2 2 1.9 4.3 1.8 6.6.8 2.1-.2 3.8-1.1 5.5-1 1.9-.8 3 1.2 4 3.4 1.8 6.2 4.3 9.7 6 3 1.4 3.6 1.2 5.5-1.6.7-1 .8-2.5 2.3-3 .9-1.3 1.8-.9 2.6 0 .5 2.7-1.1 4.7-2.7 6.4-2 2.2-2.3 4.3-.9 6.8.8 1.3.5 3.7 2.2 3.9s2.4-2.1 3.4-3.3c2.4-2.4 3-6.2 1.5-9.3-.5-1.2-1.2-2.6-.5-4 .9-1.1 1.5-1.2 2.1-.3.3.4.1 1.1.6 1.4 1.2.7 1.3 2 1.6 3.1 1.3 3.6 1.3 3.6 5.2 3.6 7.3.1 13.8-2.6 20.3-5.4.7-.3 1.3-.7 2-1 3.3-1.3 5.8-3.1 5.1-7.2 0-.7.2-1.3.7-1.8.6-.4 1.1-.9 2.1-.7.1 2.3.2 4.7.3 7 .7 1.6-.5 2.4-1.4 3.2-1.5 1.2-3.1 2.1-4.8 2.9-8.4 4-16.9 7.5-26.5 6.7-1.8-.2-3.6.8-4.3 2.5-.7 1.3-1.6 2.6-2.6 3.6-2.7 2.4-3.1 5.5-3.4 8.8-1 9.7-2.1 19.4-3.1 29.1-.6 4.1-.8 8.3-.8 12.5.2 4.9-1.4 8.8-5.5 11.8-2.6 1.9-4.8 4.4-7.3 6.4-3.9 3.2-5.6 2.8-7.7-1.9-4.1-9.2-4-18.3.3-27.5 4.8-10.6 9-21.5 14.2-31.9.3-.8.7-1.5 1.2-2.2 3.4-4 2.6-8 .5-12.2-.4-.9-1.1-1.7-2-2.2-4-1.7-7.4-4.3-11-6.6-2.8-1.8-2.8-1.8-4.8 1-3.2 4.6-7.1 8.7-11.5 12.1-.6.5-1.3 1-2.1 1.4-.7.5-1.7.4-2.3-.3-.6-.7-.6-1.8.1-2.4l.1-.1c.7-.7 1.5-1.4 2.3-2 6-5 11-11.2 14.5-18.2 2-4 2-7.7-.7-11.5-3.2-4.5-7.2-8.3-11.8-11.4-6.8-4.6-13.8-8.8-20-14.2-4.3-3.6-8.1-7.7-11.3-12.3-3.8-5.5-8-10.8-11.2-16.7-.9-1.7-1.9-1.7-3.3-.8-4.4 3-8.4 6.4-12.7 9.5-8.6 6.1-18.2 10.1-28.3 13-4.1 1.2-4.2 1.2-2 4.8 6.2 9.9 12.6 19.8 20.6 28.5 3.8 4 8.3 7.2 13.3 9.6 4.1 2.1 8.4 4 12 7.1 5.7 5 9.6 10.8 10.1 18.8.4 7.8-.6 15.4-1.7 23-.2 1.6-.5 3.1-1 4.6-3.2 8.5 0 15.7 4.3 22.6 4.5 6.9 10.1 12.9 16.7 17.9 14.3 11.2 30.1 20 45.6 29.2 1.5.9 3.2 1.4 5 1.5 3.9.2 7.8.8 11.7.4 2.6-.3 5.2-.1 7.8-.1 9.6-.1 19.1-1.6 28.6-2.8 1.1 0 2-.8 2-1.9 0-.2 0-.4-.1-.6-.9-6.5-1.2-13.1-1.9-19.7-.6-6.3-.9-12.6-1.4-18.9-.6-7.6-1.5-15.2-1.9-22.8-.1-2.1-1-4-2.7-5.3-1.7-1.5-3-3.4-3.9-5.4-.5-1-1.1-2.2.2-3s2.3.2 3 1.3c.9 1.5 2 2.9 3.2 4.2 1.2 1.4 3.1 1.9 4.8 1.2 11.1-4.2 22.4-7.4 33.4-11.8 4.7-1.9 8.8-5.1 11.6-9.3 2.1-3 4.2-5.9 6.1-9 1.5-2.3 2-5.1 1.2-7.7-3.3-11.9-5.9-24.1-9.2-36-.8-3-1.1-3.2-4-2.6-4.2.9-8.3 1.9-13 2.8 2.6 1.6 5 2.9 7.4 4.2 2.1 1 4 2.4 5.6 4.1.8.8 1.6 1.9.5 2.9s-2.1.4-3-.3c-3.4-2.3-6.9-4.5-10.5-6.4-3.5-1.9-7.4-3.1-10.8-5.2-2.4-1.7-5.2-1.7-7.9-2.3-.8-.2-1.6-.3-2.4-.5-.4-.1-.5-.5-.5-.9s.3-.7.6-.8c.6-.1 1.3-.1 1.9-.1 1.9.1 3.9.5 5.7 1.1 1 .4 2 .6 3 .6 1.9 1.2 4.1 1.6 6.3 1.2 6.5-1.2 12.8-2.7 19.2-4.2 1.1-.3 1.2-.8 1.1-1.8-.1-2.9 0-2.9 2.8-3.4 1.1-.2 2.2-.5 3.2-.9 2-.7 2.2-.6 3.2 1.6.8.9 1.4 2 1.6 3.2 3.2 10.9 6.3 21.8 8.5 32.9.3 1.3.4 2.6.2 3.9.1 2.5.4 5 1 7.4.5 2.5.1 4.4-2.2 5.7-.7.4-1.4 1-1.9 1.6-2.1 2.1-2.2 2.2-4.3.1-2 2.9-4 5.8-5.8 8.8-3.7 5.8-9.2 10.2-15.6 12.6-6.2 2.5-12.6 4.5-19 6.6-5 1.6-9.7 3.7-14.7 5.3-1.1.4-1.4 1-1.3 2.1.5 6.1.9 12.2 1.4 18.4.5 5.8 1 11.7 1.4 17.5.8 9.7 1.4 19.5 2.7 29.2.1 1 .2 2.1-.7 2.5-1.7.5-1.5 1.7-1.3 2.9.8 5.3 1.5 10.7 2.4 16 1.4 8.2 3.1 16.5 4 24.8.9 9.5-.1 19-2.8 28.1-1.3 4.6-3.2 9.1-5.5 13.4-4.4 8.2-9.3 16.2-14.6 23.8-.4.5-.7 1.1-1 1.6-1.5 1.7-2.7 3.7-3.6 5.8-1 2.2-2.6 4-4.7 5.2-.9.9-2 1.6-3.2 2.1-7 2.9-14.3 5.2-21.6 6.9-1.9.4-3.7.7-5.2-.8-2-1.1-3-3-3.9-4.9-2.2-4.9-4.7-9.6-7.5-14.2-.3-.4-.5-.7-.9-1l-.2-.5c-.1-.2-.3-.4-.4-.6-1.6-2.8-3.6-5.4-5.9-7.7-7.3-7.6-14.7-15.2-22.1-22.8-.1-.1-.3-.2-.5-.3-.6-.1-1.2-.4-1.7-.9-6.1-7-11.5-14.3-13.6-23.6-.3-1.7-.4-3.4-.3-5.2-.3-1.5-.6-3.1-.9-4.6-.1-.5-.3-1-.5-1.4-3.7 1.3-7.5 2.2-11.4 2.7-9.9.8-19.2-.6-27.8-6.1-7.1-4.6-14.1-9.3-21.5-13.4-8.7-4.9-17.9-8.7-27.8-10.2-5.9-.8-11.8-1.2-17.8-1.4-1.8 0-3.5-.2-5.2-.7-1.4.3-2.7-.6-3-2-.1-.2-.1-.5 0-.7-.2-5.4-1-10.7-.7-16 0-.8.3-1.6.7-2.3.7-1.6 1.9-3 3.4-3.9 2.6-1.8 4.9-4.1 6.6-6.7 3.6-4.9 6.8-10 9.6-15.4 3.7-7 7.4-14 12.2-20.3 3.8-5.1 8.3-9.6 13.3-13.5 5.2-4.1 11.2-6 17.6-7.3 7.9-1.6 14.9.9 21.6 4.6 3.9 2.3 8 4.4 12.1 6.3 4.3 1.8 4.4 1.8 5.2-2.7 1.2-6.2 2.5-12.4 3.1-18.7.5-5.5.8-11-.2-16.4-.5-2.6-1.7-5.1-3.4-7.2-3.1-4.3-7.4-7.7-12.2-9.9-11.6-5-20.4-13.1-27.4-23.5-4.8-7.2-10.1-14.1-14-21.9-.2-.8-1.1-1.3-1.9-1.1-1.6.3-2.6-.5-3.3-2-.3-.6-.6-1.2-.8-1.8-1.1-3.4-.6-4.4 2.8-5.6l.8-.3c1.9-1.5 4.3-1.7 6.4-2.6 6.8-2.7 13.3-6.2 19.2-10.5 5.8-4.2 12.1-7.6 17.6-12.2.5-.4 1.1-.6 1.8-.6.5-.4 1-.9 1.5-1.2 1.9-1.3 3.6-1.1 4.2 1 3.5 11.2 11.3 19.8 17.6 29.3.9.2 1.7.8 2.2 1.6 6 7.2 13.4 12.7 21.3 17.6.2.1.5.3.7.4 3.3 2.1 6.6 3.1 8.4 5.9z"/><path fill="#38a1fc" d="M217.1 125.3c-2.8 2.4-5.8 4.6-8.9 6.6-3.9 2.5-7.8 5.1-11.6 7.8-6.4 4.4-13.3 7.9-20.5 10.5-1.3.5-2.6.9-4 1 .4-5.4 1.6-10.6 2.4-16 1.1-7.9 2.2-15.8 3.2-23.7.6-4 1-8.1 1.1-12.2 0-5.2-1.5-6.9-6.4-8.3-9.7-2.7-19-6.3-27-12.9-3.8-3.2-6-7-5.8-12.1 0-3 .2-5.9.5-8.9.7-3.8 2.1-4.5 5.6-2.7.6 3.4.4 6.8.9 10.2.5 3.8 2 6.9 5.5 8.7-3.7-2.1-4.9-5.6-5.3-9.5-.3-1.9-.5-3.8-.6-5.8 0-1-.1-2.1.7-2.8l4.3.6c1.2 1 .8 2.4.8 3.6.1 3.8 2 7.4 5.2 9.5-4.2-3.9-5.9-9.1-4.2-13.2 3.3-.5 5.1.3 6.1 3.3.9 2.7 2.5 3.7 5.2 4.1 9.9 1.1 19.5 4.3 28.1 9.3 2.2 1.2 3.8 3.4 4.2 5.9.4 2 .6 4.1.5 6.1 0 2 0 3.9.1 5.9.1 3.1.9 6.1 2.5 8.8 5.1 8.2 9.7 16.7 15.6 24.5.6.6 1.1 1.2 1.8 1.7z"/><path d="M19.6 369.8C8.8 360.2 1.6 348.6.2 334c-1.1-12.1 1.9-23 11-31.7 6.2-5.9 13.4-7.6 21.6-6.1 4.4.9 8.6 2.4 12.5 4.6 3.9 2.2 7.7 4.5 11.3 7.1.4 1.4-.5 2.3-1.2 3.2-3.5 4.9-7.7 9.3-11.4 14-10.1 12.6-17.8 26.9-22.8 42.2-.3 1-.1 2.3-1.6 2.5z"/><path fill="#38a1fc" d="M180.5 437.4c-1.1.4-2.3.6-3.5.5-7.7.3-15.4.1-23.1-.6-6.3-.6-12.6-1-18.7-2.2-1.3-2.5-.8-5.1-.6-7.6 1.3-18.1 5.6-35.8 12.7-52.5.6-1.5 1.1-3.2 2.7-4.1l21.7 7.3c.6.8.8 1.9.6 2.9-.8 12-.9 24 1.7 35.8 1.3 5.9 3.2 11.7 5.8 17.2.4.9 1.2 1.9.7 3.3z"/><path fill="#38a1fc" d="M124.3 358.6c7.2 4.1 14.7 7.7 22.4 10.8.2.1.3.2.4.4.6 1.1-.1 2-.5 2.9-6.2 14.8-10.8 30.1-12.6 46.1-.6 4.1-.9 8.3-.8 12.5.1 1.2.3 2.4-.5 3.5-10.8-1.8-21.3-4.9-31.4-9.2-.4-.2-.9-.2-1.2-.6-.4-.9-.5-2-.2-3 2.1-13.8 4.5-27.5 10.2-40.4 3.2-7.3 6.8-14.5 11.7-20.8.6-.9 1.5-1.7 2.5-2.2z"/><path fill="#38a1fc" d="M97.6 424c-4.9-1.9-9.7-4.2-14.3-6.7-5.2-2.7-10.2-5.6-15.1-8.8-.2-.9-.1-1.9.2-2.7C72.1 393 75.5 380 82 368.2c4.5-8.4 9.9-16.4 16-23.8.4-.7 1.2-1.2 2-1.4 7 5.2 14.4 9.8 21.7 14.4 0 .9-.4 1.8-1 2.5-10 13.6-16.1 29-19.5 45.5-1.1 5.5-1.9 11-2.8 16.5.1.7.2 1.6-.8 2.1z"/><path fill="#38a1fc" d="M76.6 323.9 90.1 335c2.6 2.1 5.2 4.2 7.7 6.3.3 1.2-.7 1.9-1.3 2.6-10.3 12.3-18.3 26.4-23.5 41.5-2.1 6.1-3.8 12.3-5.4 18.5-.3 1.1-.1 2.5-1.7 2.9-3.9-2.1-7.6-4.6-11.1-7.3-4.8-3.4-9.4-6.9-13.8-10.7.8-4.4 2.7-8.5 4.4-12.6 4.1-9.8 7.9-19.7 12.9-29.1 4.2-7.9 9-15.4 15.8-21.5.8-.6 1.4-1.5 2.5-1.7zM415.7 208.9c-.8-2.6-1.5-5.3-1.9-8.1-2.3-10.8-5.7-21.3-8.5-31.9 1.7.2 2.6-1.3 3.8-2.1 3-1.7 4.7-5 4.5-8.4-.1-2.1.1-4.3 0-6.4-.1-1.6.1-3.2.5-4.7.8-2.3 1.1-4.7.8-7.1-.4-1.9.7-3.6 2.3-4.8 3.1-2.3 5.1-5.8 5.6-9.6.1-.8.1-1.7 0-2.5-.3-1.3-.2-2.6.2-3.8 1.2-3.3 4.6-4.2 7.1-1.7 1.5 1.5 2.5 3.6 2.6 5.7.2 2.1.1 4.3-.3 6.4-.4 2.1.1 2.6 2.2 2.1s4.3-.5 6.3 0c.8.2 1.7.3 2.5.3 3.3.2 4.8-1 5.3-4.3.1-1.5.3-3 .6-4.4 1.1-3.1 3-3.6 5.6-1.5.8 2.2-.1 4.3-.4 6.5-.6 4.6-1.6 9.1-4.9 12.8 2.5-2.3 4.1-5.4 4.5-8.8.7-3.6 1-7.2 2-10.6.7-.4 1.5-.8 2.2-1.2 2.9-1.7 5.7.8 5.2 3.6-.4 3.5-.4 7.1 0 10.6.1 1.7 0 3.3 0 5-.1 2-1 3.8-2.6 5-2.8 2.3-6 4.1-9.4 5.4-4.4 1.9-8.8 3.4-13.4 4.7-3.8.9-6.8 3.8-7.8 7.6-1.4 4.6-2.3 9.2-3.3 13.8-1.7 7.8-3.8 15.5-6.2 23.1-1 3.5-2.7 6.6-5.1 9.3zM174.4 378.8c6.4 1.7 12.8 3.1 19.4 4 4.1.5 8.3.7 12.5 1.1.7 1 1.1 2.2 1.1 3.4 1.5 14.3 5.9 27.4 14.5 39 .6.6.9 1.4.9 2.3-7.4 3-15 5.2-22.9 6.6-5.4 1.1-10.8 1.8-16.2 2.1-1.6-.8-2.1-2.3-2.8-3.7-5.1-11-7.8-23-7.9-35.2-.1-5.6-.5-11.4.5-17 0-1 .3-1.9.9-2.6z"/><path fill="#38a1fc" d="M19.6 369.8c.2-.2.3-.5.4-.7 2.7-10.3 7.5-19.7 12.8-28.9 4.2-7.2 9.1-14 14.6-20.3 2.7-3.2 5.4-6.4 7.9-9.8.6-.6 1-1.3 1.3-2.1 6.3 4.3 12.1 9.3 18 14.1-1.5 2.7-4 4.3-5.9 6.6-8.2 10-14.1 21.2-18.9 33-3.2 7.7-6.6 15.4-9.4 23.3-.3.8-.5 1.6-1.4 2-6.8-5.3-13.2-11.1-19.4-17.2zM242.7 374.6c.8 1.2.4 2.7.7 4 1.9 8.5 6.2 15.6 11.8 22.1l3 3.6c-8.6 11.1-20.1 18.2-32.9 23.4-3-2-4.4-5.3-6.1-8.2-5.9-10.1-9.4-21.4-10.4-33-.1-.9-.5-1.8.3-2.7h.3c11.4.9 21.6-3.6 32-7.4.8-.2 1.3-1 1.3-1.8zM126.8 318.3c-.3 5.9.5 11.8.7 17.7 0 1.7.5 3 2.4 3.4-6.3 2.2-12.5 1.1-18.7-.1-9-1.7-15.4-7.4-21.6-13.6.6-1 1.8-1 2.7-1.3.8-.2 1.6-.5 2.3-1 .7-.5 1-1.4.6-2.2-.4-.9-1.2-.7-2-.5-1.2.2-2.3.7-3.5 1-1 .3-1.9.8-2.9.1l-.5-1.2c2.7-3.2 6.6-3.5 10.3-4 3.5-.4 4.3 0 10.9 3.3-3.6-3.9-8.1-4.6-13.1-4-3.2.4-6.1 1.7-9 2.8-.5-.9-.9-1.9-1.1-3-.2-.8-.9-1.4-1.8-1.4.2-1.5 1.4-1 2.2-1.1 1.2-.1 2.4 0 3.6-.2.9-.2 1.7-.5 1.7-1.6s-1-1.1-1.9-1.2c-1.3-.2-2.6.7-3.8-.3 2.2-3.7 5.7-5 9.7-4.8 4.1.3 8 2 11 5 1.7 1.6 3.4 3.1 5.1 4.7 4.9 4.5 10.4 6 16.7 3.5zM263.8 174.1c-8-4.6-15.3-10.5-21.4-17.5-.7-.8-1.3-1.6-1.9-2.3.2-.2.5-.4.6-.6 1.1-4.6 4.2-8 6.8-11.7s2.7-5.7.3-9.4c-1.1-1.8-2.4-3.5-3.6-5.3-2.3-3.3-2.6-7.8 2.2-10.8 1.6-1 3.3-1.7 5.1-2 5-.9 10-1.9 15.1-2l.3.3c-.2 1.8-1.5 2.9-2.7 4.1-5.8 5.6-9.5 12.5-12.4 19.9-.5 1.4-.5 2.9-.1 4.3-1.7 2.4-3.4 4.8-5.2 7.1-1.6 1.9-2.6 4.3-2.9 6.7-.2.7.1 1.5.7 1.8 4.7 3.8 9.4 7.7 14.2 11.6.9.8 2 1.4 3 2 .5.3 1.1.4 1.4.8 1.9 2.7 5.1 3.7 7.6 5.7.9.6 1.5 1.7 1.3 2.8l-7.9-5.3c-.2 0-.1-.5-.5-.2z"/><path fill="#010101" d="M472.6 234.9c.4 28.1-7.5 53.8-22.1 77.5-.4.6-.8 1.2-1.3 1.8-.3.4-.8.5-1.3.2-.4-.2-.6-.7-.5-1.2.3-1.1.8-2.1 1.5-3 5.8-9.6 10.5-19.7 14.2-30.2 5.1-15.7 7.5-32.1 7-48.6-.2-9.1-1-18.2-2.4-27.2-.5-3.3-1.4-6.6-2.6-9.7-.7-1.9-1.3-3.9-2-5.8-.3-.7-.5-1.5.4-1.9s1.4.3 1.6 1.1c1.7 5 4 9.8 4.8 15.1 1.8 10.5 2.6 21.2 2.7 31.9zM104.8 190c1.1-22.5 6.3-44.6 15.4-65.1 3.4-8.1 7.9-15.6 13.4-22.4.4-.5.8-1 1.3-1.5.3-.4 1-.5 1.4-.2 0 0 .1 0 .1.1.5.4.6 1 .2 1.5-.2.4-.5.8-.8 1.2-8.4 10.2-13.8 22-18.2 34.3-4.8 13.4-8 27.3-9.6 41.5-1.1 10.1-1.7 20.2-.2 30.3l.6 3.3c.1.5-.2.9-.6 1.1-.5.2-1.1 0-1.3-.5v-.1c-.3-.8-.5-1.6-.7-2.4-1.1-7-1.4-14.1-1-21.1zM305.1 17.7c22.4.8 44.1 4.8 64.5 14.6.9.4 1.8.9 2.7 1.4.5.3.8.9.5 1.4-.3.5-.9.7-1.4.5-.5-.1-1.1-.3-1.6-.6-16.1-8-33.4-12-51.3-14.1-15.6-1.8-31-.1-46.3 3.3-3.4.9-6.8 2.1-10 3.5-.5.2-1 .5-1.5.6-.4.1-.8-.1-1-.4-.3-.4-.2-.9.1-1.3.8-.7 1.6-1.2 2.6-1.5 5.7-2.5 11.7-4.2 17.9-5.1 8.3-1.2 16.5-2.4 24.8-2.3z"/><path fill="#000101" d="M39.1 387c4.6-13 9.9-25.8 15.9-38.2 4.4-9.4 10.4-17.9 17.7-25.1.5-.7 1.2-1.2 2-1.5.7.5 1.4 1.1 1.9 1.8-9.9 9.4-16.9 20.7-22.2 33.1-4.3 10-8.8 19.9-12.4 30.1-.2.6-.5 1.2-1 1.7l-1.9-1.9zM66 406.8c1.4-4.9 3-9.8 4.2-14.7 3.1-12 8.5-23 14.9-33.5 3.7-6.1 8-11.9 12.7-17.3.9.4 1.7 1 2.3 1.7-9.5 11-17.1 23.4-22.7 36.9-3.5 8.3-5.6 17.2-8.2 25.7-.1 1-.5 2-1 2.9-.8-.4-1.6-1-2.2-1.7zM97.6 424c1.9-16.5 5.2-32.6 12.5-47.7 3.1-6.8 7-13.1 11.7-18.9.9.3 1.7.7 2.4 1.3-.2.4-.4.8-.7 1.2-10.2 13.1-16.2 28-19.7 44.1-1.4 6.4-2.5 12.9-3.4 19.5-.1.5-.2 1.1-.4 1.6-.8-.2-1.6-.5-2.4-1.1z"/><path fill="#010101" d="M132.8 434.9c-.6-.9-.4-2-.4-3 .4-15.3 3.1-30.5 8.1-45 1.9-5.8 4.1-11.5 6.6-17.1 1 .1 2 .4 2.8 1-5.5 12-9.6 24.6-12.1 37.6-1.7 8.8-2.6 17.7-2.7 26.6l-2.3-.1zM174.4 378.8c-.6 6.3-.8 12.6-.7 18.9.2 10.7 2.3 21.2 6 31.3 1.2 2.8 2.5 5.6 4 8.3l-1.9.3c-.5.2-1 .1-1.4-.2-4.1-7.8-6.9-16.3-8.3-25-1.6-10.5-1.9-21.1-.8-31.7.1-.8.1-1.7.2-2.5 1-.1 2 .1 2.9.6z"/><path fill="#030303" d="M495.1 208.2c.1 2.8-.1 5.7-.4 8.5-.1.5-.2 1.1-.3 1.6-.1.4-.5.6-.9.6-.5.1-.9-.2-1.1-.7-.1-.9-.2-1.8-.1-2.8 1.1-16.8-1.2-33.7-6.9-49.6-.8-2.3-1.8-4.5-2.7-6.7-.2-.4-.4-.8-.6-1.3-.2-.5 0-1 .4-1.2.4-.2.9-.2 1.3.2.7.7 1.2 1.6 1.5 2.6 3.3 7.6 5.8 15.5 7.3 23.6 1.7 8.4 2.5 16.8 2.5 25.2z"/><path fill="#010102" d="M209.1 383.9c.6 3.9 1.2 7.9 1.9 11.8 2.1 10.9 6.6 21.2 13.2 30.1.5.5.9 1.2 1.1 1.9l-2.4.9c-6.6-8.1-11.3-17.5-13.8-27.6-1.4-5.6-2.4-11.3-2.8-17l2.8-.1z"/><path fill="#030303" d="M293.3 1.5c-.1.5-.6.9-1.2.9-.9.1-1.9.2-2.8.2-10.6.5-21.1 2.3-31.2 5.3-4.6 1.3-8.7 3.6-13 5.6-.8.4-1.9 1.5-2.7.3-.8-1.5.8-1.8 1.7-2.2 8.8-4.9 18.2-7.7 28.1-9.5 6-1 12-1.6 18-2.1.8-.1 1.7 0 2.5.3.5.2.7.7.6 1.2zM343.8 48.1c12.2.4 23.7 3.1 34.3 9.2 1 .6 2 1.3 3 2 .5.3.7.9.4 1.4 0 0 0 .1-.1.1-.3.5-1 .7-1.5.4-.7-.3-1.3-.7-2-1-9.1-5.4-19.4-8.6-30-9.4-1.8-.2-3.5-.2-5.3-.4-.8-.1-1.8 0-1.8-1.2.1-1 .9-1 1.7-1 .5-.2.9-.1 1.3-.1z"/><path fill="#050505" d="M133 128.6c0-1.5.3-2.9.8-4.3 3-9.5 8.5-17.5 15.3-24.6.3-.3.6-.5.9-.7.4-.3.9-.3 1.3 0 .5.3.6.9.4 1.4 0 0 0 .1-.1.1-.5.7-1 1.3-1.6 1.9-5.6 6.1-10.4 12.6-13.2 20.5-.7 1.7-1.2 3.5-1.5 5.3-.1.8-.2 1.6-1.2 1.6-.6 0-1-.4-1.1-.9v-.3z"/><path fill="#040404" d="M452.2 239.6c0 3.5-.3 6.9-.8 10.3 0 .2 0 .4-.1.6-.3.8-.2 2.1-1.5 1.9-1.2-.3-1-1.4-.9-2.3.3-2.3.5-4.6.8-6.9.9-8-1.1-15.7-2.8-23.4-.1-.7-.3-1.4-.4-2.2-.1-.6.3-1.1.8-1.2.6-.1 1.1.3 1.2.9.4 1.3.6 2.5.9 3.8 1.4 6.1 3.1 12.2 2.8 18.5z"/><path fill="#050505" d="M122.4 195c.1-8.4 1.9-16.6 5.2-24.3.4-.9.7-2.3 2-1.8s.6 1.9.2 2.9c-2.4 5.8-4 11.9-4.8 18.2-.3 2.9-.4 5.9-.3 8.9 0 .9.4 2.1-1 2.1s-1.2-1.2-1.2-2.1c-.1-1.3-.1-2.6-.1-3.9zM91.6 196.6c.7 0 1.1.3 1.2.8.1.7.2 1.5.2 2.2 0 8.5 1.6 17 4.6 25 .1.2.2.5.3.8.1.6 0 1.1-.6 1.4-.5.2-1 0-1.2-.4-.4-.6-.7-1.3-1-2-3-8.1-4.5-16.6-4.4-25.3 0-.6.1-1.1.2-1.6-.1-.6.2-.9.7-.9z"/><path fill="#020305" d="M85.4 318.7c.1-.4.4-.8.8-1 4.3-1.9 8.8-3.2 13.5-2.6 2.8.3 5.4 1.5 7.6 3.3.6.5 1.1 1 1.5 1.7.4.4.4 1.1-.1 1.5s-1.1.4-1.5-.1l-.1-.1c-5.9-6-12.4-4.5-19.1-1.7-.6.3-1.2.6-1.7 1-.3-.8-.6-1.4-.9-2z"/><path fill="#060606" d="M344.5 105.1c-.4.3-.7.5-1.1.8-.7.3-1.5.5-2-.3s.5-1.1.6-1.7c4.6-2.9 9.2-5.9 13.9-8.8 1.3-.8 2.8-1.5 4.1-2.3.5-.4 1.2-.3 1.6.2l.1.1c.5.8 0 1.2-.6 1.6s-1.5.8-2.2 1.3c-4.8 3.2-9.6 6.1-14.4 9.1z"/><path fill="#030304" d="M86.8 321.8c2-.6 4-1.2 6.1-1.8s2.9-.2 3.3 1c.4 1.4-.3 2.9-1.6 3.5-1.6.9-3.4.8-5.1 1.3-1.5.4-3.1.3-4.6-.1-1.2-.4-1.4-1.2-.5-2.1.8-.7 1.5-1.3 2.4-1.8z"/><path fill="#060607" d="M305 95.5c-1 1-2 1.6-3.3.5 3.7-5 6.8-10.4 10.1-15.6.5-.9.9-2.5 2.3-1.8 1.6.8.3 2.1-.3 3.1-2.9 4.7-5.9 9.3-8.8 13.8z"/><path fill="#070707" d="M437.1 291.5c-.1.3-.2.7-.3 1-1.7 5-3.7 9.9-6 14.6-.5.9-.9 2.4-2.3 1.7s-.3-1.8.1-2.7c2.3-4.5 4-9.1 5.8-13.8.2-.5.4-1 .6-1.6s.6-1 1.3-.9c.9.3.8 1.1.8 1.7z"/><path fill="#020304" d="M84.4 309.9c1.6-.3 3.3-.5 4.9-.5.9.1 1.6.3 1.9 1.3.2.8 0 1.7-.7 2.3-.8.6-1.8.9-2.8 1-1.7.3-3.5-.4-5.2.3-.5.1-1.1.1-1.6 0-.7-.2-1.6-.2-1.6-1.2 0-.8.5-1.4 1.3-1.6 1.2-.7 2.5-1.1 3.8-1.6z"/><path fill="#030609" d="M456.1 122.1c.7 1.7-.1 3.3-.3 4.9-.2 2-.7 4-1 6-.5 2.8-1.7 5.5-3.4 7.8-.4.5-.8 1-1.3 1.5-.6.6-1.4 1.3-2.1.6s.3-1.4.8-1.9c2.4-2.5 3.9-5.7 4.4-9.1.5-3.2 1.1-6.4 1.7-9.6l1.2-.2z"/><path fill="#030507" d="M147 55.1c0 3.6.3 7.2 1 10.8.3 2.8 2 5.3 4.6 6.6.8.4 2.2.8 1.6 1.9s-1.6 0-2.4-.4c-2.9-1.4-5-4.1-5.4-7.3-.8-3.5-1.1-7.2-1-10.8 0-.6 0-1.1.5-1.5l1.1.7z"/><path fill="#080909" d="M348.5 108.3c-2.3 1.3-2.3 1.3-3.9-.2.2-.8 1.1-.8 1.6-1.4 3.3-1.4 6.4-2.9 9.5-4.6.5-.3 1-.5 1.5-.8s1.3-.4 1.7.2 0 1.3-.5 1.6c-.8.5-1.6 1-2.4 1.4-2.5 1.4-5 2.6-7.5 3.8z"/><path fill="#0a0b0b" d="M310.2 95.9c-.6.5-1.2.8-1.9 1-.8.1-1.5 0-1.6-1 2.4-2.5 4.9-5 7.3-7.5.6-.6 1.3-1.1 2-1.6.4-.3.9-.3 1.3.1.4.3.4.9.2 1.3l-1.2 1.5c-1.6 1.7-3.3 3.5-5 5.2-.3.4-.6.8-1.1 1z"/><path fill="#090909" d="M316.7 95.7c-1.1.8-2.4 1.4-3.8 1.6-1.2.1-.7-.7-.7-1.3-.1-.3-.1-.4.3-.5 2.7-1.5 5.2-3.2 7.7-5 .3-.2.6-.5.9-.7.8-.5 1.6-1.4 2.4-.3s-.3 1.7-1 2.2c-2 1.4-3.9 2.7-5.8 4z"/><path fill="#03060a" d="M153.1 55.7c-.1 1.9.1 3.9.5 5.8.4 2.8 2.1 5.2 4.5 6.7l.9.6c.3.2.4.7.2 1-.2.3-.6.5-.9.4-.9-.3-1.7-.7-2.4-1.3-2.5-2.1-4.1-5.1-4.4-8.4-.2-1.5-.1-3.1-.2-4.7.6-.2 1.2-.3 1.8-.1z"/><path fill="#0b0b0c" d="M352 112.9c-.9-.1-2.1 1.1-2.7-.2-.7-1.6 1.3-1.3 1.9-2.1l5.3-1.6c.5-.2 1.1-.3 1.6-.4.7-.2 1.4 0 1.6.7s-.3 1-.8 1.3c-.6.3-1.2.5-1.8.7l-5.1 1.6z"/><path fill="#101010" d="M467.1 165.7c0 .4-.2.8-.5 1.1-.4.3-.9.2-1.2-.2-1.4-2.1-2.7-4.4-3.8-6.8-.2-.5 0-1.2.5-1.5.5-.3 1.1-.1 1.4.4v.1c1.2 2.1 2.4 4.2 3.5 6.3 0 .1.1.3.1.6z"/><path fill="#bccde3" d="M312.5 95.5c-.1.2-.2.3-.3.5l-2.1-.1c.1-.5.5-1 1-1.1.3.5.9.6 1.4.7z"/><path fill="#4b8ee2" d="m180.5 437.3 1.4.2c-.6.5-1 .3-1.4-.2z"/><path fill="#fff" d="M286.7 435.1c.3 0 .5.3.4.6-.3-.1-.5-.3-.4-.6z"/><path fill="#38a1fc" d="M299.6 456.4c2.1.6 4.4.5 6.5-.2 7.2-1.8 14.2-4.1 21-7 .8-.4 1.7-.6 2.6-1-1.4 3.2-2.4 6.4-3 9.8-.1.5-.2 1.1-.3 1.6 0 1.6.6 2.1 2 1.4 2.3-1.2 4.7-2.2 7.1-3.1 9.5-3.8 18.5-2.9 27.2 2.4.5.2.9.6 1.2 1.1-.6.5-1.3.7-2 .7-1.8.2-2.2 1.3-1.8 2.9-.1.3-.3.5-.5.6-2.2.4-4.2-.5-6.3-.6-1.4-.2-2.8-.1-4.1.4 6.2 0 11.9 2.6 17.9 3.7 1.2 0 2.4.5 3.3 1.2.3 1.2-.4 2.2-.6 3.4-1.1.4-2-.3-2.9-.6-1.3-.5-2.6-.8-4-.8-.4 0-1 0-1.1.6s.3.8.7 1.1c1.1.6 2.4 1 3.6 1.3.7.2 1.9-.1 1.9 1.3-5.7 2.7-11.8 3.1-18 2.8-3.6-.2-7.2-.7-10.8-.9-2.3-.1-4.6-.1-7 0-9.5.3-18.4-2.2-27-5.9-.6-.3-1.2-.6-1.7-.9-4.7-2.8-5.8-5.3-4.8-10.7.3-1.7.6-3.2.9-4.6z"/><path fill="#020406" d="M370.4 470.2c-3-.1-5.9-.7-8.7-1.6-3.9-1.4-8.1-2.1-12.3-2.1h-1.1c-.5 0-.9-.4-.9-.9s.2-.9.7-1.1c.7-.3 1.4-.4 2.2-.3 3.2 0 6.5.4 9.6 1.1.8-.1 1.7.1 2.4.5l.7.3c.5.2 1 .3 1.5.4 1.8.8 3.9.4 5.4 1.8.4.5.6 1.2.5 1.9z"/><path fill="#050709" d="M359.9 464.7c-1.6-2-1.5-2.5.9-3 1.1-.2 2.2-.2 3.3-.3 1.4.7 3 .7 4.5 1.1 1.6.3 3.2 1 4.5 2.1.5.4.9.8.6 1.4-.2.6-.9.9-1.5.7h-.1c-.6-.2-1.3-.4-1.9-.5-1.5.3-3.1.5-4.6.4-.4 0-.8-.1-1.3-.1-.7 0-1.4-.1-2-.3-.7-.7-1.9-.5-2.4-1.5z"/><path fill="#030405" d="M367.9 476.3c-1.2-.3-2.5-.6-3.7-1-.7-.2-1.4-.4-2.1-.7-1-.5-2-1.3-1.7-2.5s1.6-.8 2.6-.8c2.5.1 4.6 1.2 6.7 2.3.9 1.1 2.7 1.4 2.8 3.3-1.6.3-3-.7-4.6-.6z"/><path fill="#4b8bda" d="M365.5 465.9c1.6 0 3.2-.3 4.7.3-1.4.5-.3 1.4-.4 2.1-2.1-.1-4.1-.6-6-1.4-.4-.2-.9-.1-1.2-.5-.1-.1-.3-.1-.4-.1-.2 0-.3-.1-.2-.2s.1-.2.1-.2h2.2c.3.3.8.3 1.2 0z"/><path fill="#fff" d="M368.9 179.2c.9-.1 1.9.1 2.7.6 6.6 2.9 13.2 6 19.1 10.3.8.6 1.8 1.6 2.6.5s-.4-1.8-1.2-2.4c-3.8-2.8-7.8-5.2-12-7.1-.9-.3-1.7-.8-2.4-1.5l17.3-3.8c.4-.1.9-.1 1.5-.2 1.4 5.5 2.9 11 4.3 16.5 2.2 8.4 3.9 16.8 6.4 25.1.4.9.4 1.9 0 2.7-4.3 8-8.6 16.1-17 20.9-3 1.6-6.2 3-9.5 4.1-8.6 2.9-17.3 5.6-25.8 8.9-4 1.5-5.5 1-8-2.5-.9-1.2-1.6-2.5-2.4-3.8-.4-.6-.9-1-1.6-.6s-.6 1.1-.2 1.7c1.5 2.7 3 5.4 5.6 7.2.8.5 1.2 1.3 1.2 2.3l1.5 18.6c1.2 14.2 2.3 28.4 3.5 42.5.1 1.2.2 2.4.5 3.6.2 1.3-.1 1.8-1.5 2-13.7 2.1-27.6 3.2-41.4 3.2-2.1 0-4.3-.1-6.4-.3-2.6-.1-5.2-.9-7.4-2.1-12.3-7.4-24.7-14.5-36.6-22.6-7.5-5-14.4-11-20.4-17.7-3.8-4.2-6.4-9.1-8.8-14.1-1.9-4-2.4-8.6-1.2-12.8 2-7.9 3.1-16.1 3.4-24.3.1-4.3 0-8.6-1.3-12.7-.5-1.8-1.4-3.4-2.5-4.9-3.7-5-8.1-9.2-14-11.7-11.4-4.9-20-13.1-26.8-23.3-4.2-6.3-8.9-12.2-12.4-18.9l-1.3-2.6c.8-.5 1.7-.8 2.6-.9 14.2-3.6 27.4-10.4 38.6-19.9 1-.8 2.1-1.6 3.1-2.4s2.4-1.7 3.6-2.4c.6 0 .8.4.9.7 3.8 7.3 8.8 13.8 13.6 20.4 5.3 7.4 12.4 12.8 19.8 17.9 4.6 3.2 9.5 5.9 13.8 9.4 4.3 3.2 7.7 7.4 10 12.2.6 1.3.8 2.9.4 4.3-.4 1.9-1.1 3.7-2 5.5-3.8 7.2-9.1 13.5-15.4 18.6-.8.6-2.7 1.2-1.5 2.7 1 1.2 2-.3 2.8-.9 5.1-3.9 9.6-8.6 13.2-13.9l1.4-2c1.9 1.2 3.7 2.3 5.4 3.4 3.2 2.1 6.3 4.3 10 5.6.6.2 1.1.7 1.2 1.4.4 1.6 1 3.2 1.7 4.7 1.2 2.3.7 4.1-.5 6.2-7.4 13.3-13 27.3-18.6 41.4-3.4 8.5-1.2 16.5 2.4 24.2 1 2.1 2.2 2.3 4 .9s3.6-3 5.3-4.5c1.4-1.5 3-2.8 4.6-4 3-1.9 4.1-4.7 4.2-8.1.4-15.7 2.9-31.3 4.3-46.9 0-2.1 1-4.1 2.6-5.5 1.8-1.5 2.9-3.6 4.1-5.6.4-1 1.5-1.6 2.6-1.5 11.9.9 22.2-3.6 32.2-9.3 1.1-.5 1.9-1.6 2-2.9.5-1.9.2-3.9.3-5.8-.1-.8.4-1.6 1.2-1.9 4.7-1.7 9-4.4 12.6-7.8 1.6.4 1.9 1.9 2.4 3.2 2.4 5.3 4.2 10.9 5.3 16.6 0 .9.5 1.8 1.3 2.3-.5-4-1.5-8-2.8-11.9-1.1-3.1-2.4-6.2-3.8-9.2-.4-.9-1.2-1.7-.6-2.8 0-1.1.6-2.2 1.6-2.8 1.9.4 2.5 2.3 3.7 3.5.8.9 1.3 2 2.5 2.6-.8-2-2.1-3.9-3.6-5.5-.9-1-2.2-1.8-1.8-3.5l1.4-1.6c2.7.2 4.1 2.3 6 3.7 1.3 1 2.2 2.5 3.9 3-1.8-2.9-4.5-5-7.1-7-.8-.6-2.1-.9-2.1-2.4l-.3-2.3z"/><path d="M334.9 141.2c4.6 0 8.7 1.5 12.9 3 5.9 2.1 8 7.1 10.2 12.1.7 1.5.5 3.2-.5 4.5-.7.8-.5 1.7-.4 2.6.2 3.9.5 7.9-.5 11.7-1.6 6.6-5.1 11.5-12.2 13-.7.1-1.3.2-1.4 1.1s-.2 2-1.4 2-.9-1.4-1.5-2.2l-5.8 6c-1.6 1.9-4.1 2.8-6.5 2.3-2-.4-4.1-.3-6-1.1-2.2-.9-2.6-1.7-1.5-3.8 1.6-3.4 1.9-7.3.7-10.9-.3-1-.7-1.6-1.9-1.7-4.3-.1-7.9-2.1-11-4.8-1.1-1-2-1.1-3.1-.1-1.5 1.3-3.2 2.6-4.8 3.9-.7.5-1 1.4-.5 2.2 2.3 5 4.8 9.9 8.5 14 4 4.3 9.4 5.4 15.1 5.2 1.1-.1 2.2-.3 3.3-.6.8-.2 1.6-.3 1.9.6.4 1.1-.5 1.5-1.3 1.7-2.7.8-5.5 1-8.3.6-6.6-.7-12.5-4.5-15.8-10.2-2.1-3.3-4-6.8-5.6-10.4-1 .6-1.9 1.4-2.5 2.4-.5.6-.9 1.2-1.4 1.8-.3.5-1 .7-1.5.4-.7-.4-.6-1.1-.3-1.7.8-1.6 1.9-3 3.2-4.2 1-.7 1.3-2.1.6-3.2-2-4.2-4.2-8.3-6.5-12.4-.7-1.2-1.4-1.2-2.5-.8-4.7 1.5-9.2 3.5-13.5 5.9-.5.3-1 .6-1.5.8-.7.4-1.6 1-2.2 0s.4-1.5 1-2c1.8-1.2 3.6-2.3 5.6-3.1 3.4-1.6 6.9-2.8 10.6-4.2-1.7-2.3-3.5-4-6.4-4-.7 0-1.5-.1-2.2-.1-1-.1-2.4.4-2.3-1.2s1.5-1 2.5-1h5c3.9-.1 7.8.2 11.7-.6 3.7-.8 7.2-2.2 10.5-4.2-2.1-.8-4.2-1.3-6.5-1.4-1.7-.2-3.3-.2-5-.4-.6 0-1.1-.3-1.2-.9s.5-.9 1-1.1c1.4-.4 2.8-.4 4.2-.2 2.9.2 5.7.8 8.5 1.6 1.4.5 3 .3 4.1-.7 4-3 8.6-5 13.5-5.9 1.1-.3 2.2-.4 3.3-.3 2.5-.4 5.1-.4 7.6 0z"/><path fill="#000101" d="M252.1 141.2c-1.4-.9-1.4-2.1-.9-3.6 3-8.3 7.2-15.8 13.6-22 .9-.8 1.6-1.8 2.4-2.7 1-.1 1.7.4 2.8 1.1-7.3 6.3-12.9 14.2-16.5 23.1.3.5.6.5.8.4 7.7-3.4 15.7-3.4 23.8-2.1 2 .3 4.1.5 6.1.9 1.4.3 2.8 0 3.9-1 1.3-1.1 2.5-2.2 3.7-3.4 1.6-1.7 3.7-2.9 5.9-3.6 4.3-1.5 9.1.7 10.7 5 1.7 3.9 1.1 5.1-3 6.1-4.5 1-9.1 1.1-13.6.4-4.1-.6-8.3-1.2-12.4-1.9-9.4-1.6-18.6-1.3-27.3 3.3z"/><path fill="#fff" d="M345.9 202.8c0 .8.1 1.7.1 2.5 0 4.3 0 4.3-3.9 6.3-4.4 2.3-8.9 4.2-13.6 5.7-4.4 1.5-8.9 1.7-13.5 1.7-1.1.1-2-.6-2.2-1.7l-1.8-5.9c.2-1.5 1.5-1.2 2.4-1.2 3.6-.2 7.2-.9 10.8-1.1 7.6-.5 15-2.7 21.7-6.3z"/><path fill="#fefefe" d="M302.6 209.8c-.6 1.8-1.6 3.5-2.9 5-1.2 1.5-1.9 1.7-3.6.9-1.9-.9-3.8-1.9-5.6-3-2.4-1.4-4.6-3.1-7-4.5-1.1-.7-1.7-1.3-.8-2.6 1.2-2.1 2-4.4 2.4-6.8l6.3 4.5c2.8 2 5.8 3.6 9 4.9.9.4 1.9.6 2.2 1.6zM308.3 210.3c.7 2.5 1.5 5 2.2 7.5.2.7.5 1.4 0 2.1-1.7 2.4-3 5.1-5.2 7.2-1.7 1.7-2 1.6-3-.6-.4-.9-.7-1.9-1.1-2.8-1.4-2.9-2.4-5.5.9-8 1.7-1.3 2.4-3.7 3.1-5.8 1.1-.1 2.1.1 3.1.4z"/><path fill="#010202" d="M353.6 138.3c-.3 5-1.1 6.5-5.9 4.2-1.4-.7-2.9-1.2-4.5-1.3-1 0-1.7-.8-1.7-1.8 0-.2 0-.4.1-.6.6-2.5 2-4.7 4-6.2 2-1.6 4.9-1.3 6.6.7.5.6.9 1.4 1 2.2.2 1.1.3 2.1.4 2.8z"/><path fill="#040404" d="M364.2 191.8c3.6 6.6 6.2 13.7 7.7 21.1.2.9.3 1.8.3 2.8 0 .7-.3 1.3-1.1 1.3-.6 0-1-.4-1.1-1-.2-.9-.3-1.8-.5-2.7-1.4-6.8-3.7-13.4-7-19.6l-3.8-6.1c-.4-.7-.8-1.4.1-2s1.4.1 1.8.8l3.6 5.4z"/><path fill="#020305" d="M316.9 107.1c0 .6-.4 1-.9 1h-.4c-.5-.1-1-.4-1.5-.7-1.1-.8-2.1-1.6-3-2.5-1.7-2-4.5-2.6-6.8-1.5l-6.9 3c-.4.2-.8.4-1.2.7-.7.3-1.5.6-1.9-.3-.4-.7.2-1.3.8-1.6 3.5-1.9 7-3.8 11-4.6 1.9-.4 3.8.1 5.3 1.3 1.7 1.3 3.3 2.7 5 4.1.2.1.5.6.5 1.1z"/><path fill="#050506" d="M368.6 181.9c3 2.4 6.2 4.4 8.8 7.1.6.6 1.1 1.2 1.6 1.9.3.4.2.9-.1 1.3-.3.4-.8.5-1.2.2-.7-.5-1.3-1-1.9-1.6-2.4-2.3-5-4.4-7.8-6.3-2.1-1.5-4.4-2.7-6.8-3.6-.7-.2-1.3-.6-1.1-1.3s1-1 1.8-.8c1.9.5 3.5 1.6 5.3 2.4.5.1.9.4 1.4.7z"/><path fill="#030508" d="M341 111.5c2.1-.1 4.1 1 5.1 2.8.6.9 1.5 1.7 2.5 2.2.7.4 1.3.9.8 1.8s-1.3.6-2 .3c-1.2-.4-2.3-1.3-3-2.4-1.2-2.2-3.1-2.5-5.2-2.2-1.3.3-2.5.6-3.7 1.1-.8.3-1.7.7-2.1-.4-.3-.9.5-1.3 1.2-1.6 1.9-1 4.2-1.5 6.4-1.6z"/><path fill="#050607" d="M366.6 186.1c.9 1.8 2.5 2.9 3.6 4.5.7 1.1 1.6 2.1 2.2 3.2.5.8 1.6 1.8.4 2.6s-1.8-.5-2.3-1.3c-1.4-2.1-3-4.2-4.8-6.1-1.2-1.4-2.6-2.7-4-3.9-.5-.4-1-1-.4-1.7s1.4-.5 1.9.1c1.1 1 2 2.1 3.4 2.6z"/><path fill="#030508" d="M346.4 127.1c1.4.1 2.8-.1 4.1.6.6.3 1.1.8.8 1.6-.2.5-.9.8-1.4.6-.9-.3-1.8-.4-2.7-.4-2.3-.3-4.7.3-6.6 1.6-.6.4-1.3.6-1.7 0s-.1-1.4.6-1.9c1.9-1.5 4.4-2.2 6.9-2.1z"/><path fill="#04070b" d="M300 124.6c-.3 0-.5.1-.8.1-.8.2-1.8.4-1.9-.8-.1-.9.7-1.2 1.4-1.4 2.7-.5 5.4.2 7.5 1.9.6.3.8 1.1.4 1.6v.1c-.4.7-1.1.5-1.7.1-1.3-1-3.1-1.5-4.9-1.6z"/><path fill="#060b12" d="M334.9 141.2h-7.6c2-.9 4.2-.3 6.5-.6-.5-1.6.1-3.2-.6-4.7-.2-.5.1-1.1.6-1.3h.1c.6-.2 1.2.1 1.4.6.9 1.5.9 3.3 0 4.7-.3.5-.6.7-.4 1.3z"/><path fill="#fff" d="M359.8 376.9c0 12.6-3.3 25-9.6 36-4.3 7.4-8.6 14.8-13.5 21.8-1.8 2.5-3.4 5.1-4.8 7.9-.7 1.6-2.1 2.9-3.7 3.6-7.8 3.4-15.8 6.1-24 8-3.2.7-4.3.1-5.8-2.9-1.1-2.2-2.1-4.3-3.2-6.5-4.1-8.6-9.7-16.4-16.4-23.1-7.4-7.3-14.6-14.6-21.5-22.4-5.1-5.8-9.3-12.1-11-19.8-.8-3.6-1.5-7.3-2.3-10.9-.2-1.1.4-1.3 1.1-1.6 2.1-.8 4.2-1.6 6.2-2.4.6-.2 1.2-.5 1.7-.9.4-.2.6-.8.4-1.2-.2-.4-.6-.7-1.1-.7-.9 0-1.8.3-2.7.7-4.7 1.7-9.3 4-14.2 5.1-11.5 2.6-22.5 1.6-32.7-5-9.1-5.9-18.1-12-28-16.7-9.1-4.4-18.9-7-29-7.6-4.5-.3-8.9-.6-13.4-.9-2.4-.2-2.6-.4-2.7-2.6-.3-4.4-.4-8.7-.7-13.1-.3-2.3.8-4.5 2.8-5.6 2.7-1.6 4.8-4.2 6.7-6.7 4-5.4 7.5-11.1 10.6-17 3.5-6.6 7.1-13.3 11.7-19.3 3.6-4.7 7.7-9 12.3-12.6 5.3-4 11.6-6.5 18.2-7.1 6.6-.8 5.1-.8 9.1 3.8 2.1 2.4 3.8 5 5.7 7.6 2.7 3.5 5.7 6.9 8.8 10 2.7 3.1 6.9 4.4 10.9 3.6 1.7-.3 3.5-.3 5.3-.5.9-.2 1.8.2 2.2 1 4.9 8.5 11.9 14.9 19.5 20.9 9.3 7.3 19.5 13.3 29.6 19.5 4.3 2.6 8.7 5 12.9 7.7s8.8 3.4 13.6 3.4c8.5.1 16.9-.2 25.4-.9 2.7-.2 2.6-.2 3.4 2.3 1.1 3.4 1.9 7 2.2 10.6.2 3.7 2.2 7.1 5.4 9 3.6 2.5 6.8 5.5 10.3 8.1 1.8 1.2 2.9 3.2 3 5.3.9 4.1 1.2 8.1 1.3 12.1zM220.4 125.8c1 2 1 4.1 2.1 5.8.4.7-.1 1-.5 1.4-14.3 11.6-29.6 21.5-48.1 25.1-.7.1-1.6.9-2.3-.1-.7-1-1.1-2.2-1.1-3.4.1-.8.9-.8 1.6-.9 4.3-.8 8.3-2.6 12.4-4.2 4.2-1.7 8.2-3.9 11.9-6.6 6.3-4.5 13-8.3 19.1-13 1.5-1.3 3.1-2.6 4.9-4.1z"/><path fill="#fff" d="M357.1 357.6c-1.1-.9-2.2-1.7-3.2-2.6-1.9-1.7-4-3.3-6.2-4.8-3.1-2-5.1-4.6-5.4-8.6-.3-3.6-1.1-7.2-2.3-10.6-.2-.6-.3-1.2-.3-1.8l13.4-1.8c.9 10.1 2.6 20 4 30.2z"/><path fill="#fefefe" d="M402.9 169.8c.7 2.5 1.4 4.9 2.1 7.3 3.2 10.9 6.1 21.9 8.2 33 .5 2.5.7 5 1.2 7.4.3.8-.1 1.7-.8 2.2-.8.6-1.6 1.2-2.7 2-1-3.7-2-7.2-2.9-10.7-2.9-11.6-5.7-23.3-9-34.8-.3-1-.7-1.9-1-2.9-.6-1.9-.3-2.3 1.5-2.7 1.1-.3 2.1-.5 3.4-.8zM231.6 275.7c-2.8.2-5.1.3-7.4.7-2.4.3-4.9-.5-6.6-2.4-2.7-2.5-5.2-5.3-7.6-8.1-2.9-3.6-5.4-7.6-8.5-11.1 1.2-.4 2 .3 2.8.6 3.1 1.4 6.2 3 9.2 4.6 4.2 2.3 8.4 4.8 13.3 5.6.5.1 1 .5 1.1 1 1.2 2.9 2.4 5.8 3.7 9.1zM298.3 278.9c-.2 1.4-.3 2.3-.4 3.1-.5 3.6-1.6 4.3-5.1 4.1s-6.8-.9-10.2-1.3c-.9 0-1.7-.7-1.8-1.7-.3-2.2-.2-4.5.3-6.6.2-1 .8-1.3 1.8-1.1 4.5.7 9 1.3 13.5 1.9 1.5.2 2.3.6 1.9 1.6zM282.6 272.8c.9-3.1 2.1-6.2 3.5-9.2.3-.7.9-.6 1.4-.6 3.6.6 7.1 1.1 10.7 1.7.5 0 .8.4.8.9-.2 2.8-.4 5.6-.6 8.3-.1.8-.7.8-1.3.7l-14.5-1.8z"/><path fill="#fff" d="M287.5 260.5c.6-2.5 1.8-4.5 2.6-6.6.3-.7.8-.9 1.6-.8 2.3.3 4.6.7 6.9.9 1.2.1 1.6.6 1.5 1.8-.2 1.7-.4 3.5-.6 5.3-.1 1-.6 1.1-1.5 1-3.4-.3-6.8-.9-10.5-1.6zM291.7 250.6c.9-2.5 2-5 3.2-7.5.2-.4.4-.8 1-.9 1.7 0 3.3.2 4.9.6.6.1.5.7.5 1.1l-.6 6.6c-.1.9-.6 1-1.4.9-2.5-.1-5-.4-7.6-.8zM281.6 287.1l10.6 1.6c-2.3 2.4-4.8 4.7-7.5 6.7-1.4-2.5-2.4-5.3-3.1-8.3zM296.6 239.8c1.1-3.4 3-6.2 4.5-9.1.1-.2.3-.5.6-.4.3.1.6.3.9.6.1.2.2.5.1.8-.5 2.8-.2 5.7-1.1 8.7l-5-.6z"/><path fill="#4b8ee2" d="M263.8 174.1c.5-.4.5 0 .5.3l-.5-.3z"/><path fill="#224066" d="M362.1 465.9c.1.1.1.2.1.4-.8-.2-1.7-.2-2.4-.9v-.6c.7.5 1.8.2 2.3 1.1zM362.6 466.4c.5-.1.9.1 1.2.5-.4.1-.9-.1-1.2-.5zM365.5 465.9c-.2.3-.7.4-1 .2-.1 0-.1-.1-.2-.2h1.2z"/><path fill="#0a0a0a" d="M341 252.1c.6.1 1.1.5 1.3 1 1.9 3.3 3.2 6.9 3.9 10.6.2.6-.1 1.3-.7 1.5h-.1c-.8.2-1.2-.3-1.4-1s-.3-1.3-.5-1.9c-.7-2.9-1.7-5.7-3.2-8.3-.3-.5-.6-1.2 0-1.8.3.1.5 0 .7-.1z"/><path fill="#0c0c0c" d="M242.4 232.9c-1.1.1-2.2-.1-3.3-.4-.5-.2-1-.5-1-1.2.1-.9.8-1 1.4-.9 2.3.4 4.6.3 6.9-.4.9-.3 1.7-.6 2.6-.9.6-.3 1.3-.1 1.6.5.3.8-.2 1.3-.8 1.5-2.3 1.2-4.8 1.8-7.4 1.8z"/><path fill="#38a1fc" d="M312.1 149.4c2.6-2.1 5.6-3.6 8.8-4.7.7-.2 1.5-.1 2.1.3 8.4 3.4 14.4 9.1 17.6 17.6.6 1.6 1 3.4 2.1 4.8.5.7.5 1.6.1 2.4-.3.9-.7 1.7-1 2.6-.3.6-.5 1.3.3 1.7.9.5 1.4-.1 1.8-.8.6-1.1 1-2.2 1.3-3.4.1-1 .8-1.9 1.8-2.1 2.8-.8 5-2.9 7.4-4.3.9.4.6 1.1.6 1.7.1 2.5.1 5-.2 7.5-.4 3.8-2.2 7.4-5 10.1-1.4 1.5-3.3 2.5-5.3 2.9-1.1.2-1.9.2-1.9-1.1 0-.3-.1-.6-.2-.8-1.3-4.6-4.1-6.8-9-6.8-2.4 0-4.8.1-7.2.4-5.8.8-11.4.4-16-3.6-.3-.3-.8-.5-.9-1.2 1.9-1.2 4-2.1 6.3-2.6 2.5-.7 5.1-1.2 7.6-1.9.6-.1 1.3-.3 1.9-.5.4-.1.6-.5.6-.9 0-.5-.4-.9-.9-1-.5-.1-.9 0-1.4.1-4.8.9-9.7 1.9-14.2 4-2.2 1-2.2 1-3.6-.8-.3-.4-.5-.7-.9-1.1.7-1 1.8-1 2.7-1.2 3.2-.8 6.5-1.5 9.8-2.3.5-.1.9-.1 1.4-.3.6-.2 1.2-.6 1-1.4-.2-.7-.8-.8-1.3-.7-.6 0-1.1.1-1.7.2-4.1.7-8.2 1.7-12.2 2.8-1 .5-2.3.2-2.8-.9-.7-1.1-1.8-1.9-2.3-3.1.5-.6 1.2-.6 1.8-.7 5.3-1 10.7-1.2 16.1-.6.6.1 1.3.1 2 .1.5 0 1-.1 1.1-.7.2-.6-.2-1.1-.8-1.3-.5-.1-1.1-.2-1.6-.3-6.5-.9-13-.6-19.4.9-1 .4-2.2 0-2.7-1.1.4-.6 1.1-.5 1.6-.7 3.5-1 6.8-2.5 9.9-4.4 1.1-.8 2.5-.9 3.6-.4 5.4 2 10.6 4 14.7 8.3.5.5 1 .9 1.7.3.5-.5.5-1.2 0-1.7-.7-.8-1.4-1.5-2.2-2.1-3.2-2.5-6.7-4.4-10.4-5.8-.9-.4-1.9-.5-2.6-1.4z"/><path fill="#fff" d="M322.3 193.9c2.2-4.7 2.1-9.1.6-13.9 3.4-.2 6.5-.9 9.9-.6-.1 3.8-1.2 7.4-3.1 10.6-.5.8-1.9 1.9-.4 2.8 1.3.7 1.8-.8 2.4-1.7 1.9-3 3-6.4 3.2-10 .1-1.7.5-1.9 2-1.2 2.6 1.3 3.4 3.8 1.8 6.4-1.9 3.1-4.5 5.4-7 7.8-.5.5-1.1.7-1.8.7-2.6.2-5.1-.2-7.6-.9z"/><path fill="#4a8de0" d="M290.8 163.2c.2-.2.3-.3.5-.4 5.3-1.8 5.5-1.8 8.7 3.4-.9.7-1.8 1.3-2.6 2-.5.3-.7 1-.4 1.5.4.7 1 .7 1.7.3l.5-.3c2.7-1.4 3.8-1.1 5.2 1.6.3.5.3.9-.1 1.2-2 1.5-3.9 3.1-5.9 4.6l-.5-.5c-2.2-4.7-4.5-9.1-7.1-13.4z"/><path fill="#427cc6" d="M293.9 159.3c-5.6 2.1-4.5 1.8-7.1-1.6 2.5-.2 4.9-.9 7.1 1.6z"/><path fill="#fff" d="m349.4 155.8-.3-1.1.2-.2c.2 0 .4.1.5.2.2.2.3.4.4.6.7 1.2 1 2.6 1.1 4 0 .5-.3.9-.8.9h-.1c-.5 0-.6-.4-.6-.7-.1-.7-.1-1.5-.1-2.2-.1-.6-.2-1.1-.3-1.5z"/><path fill="#393939" d="M348.6 153.5c-.3-.2-.6-.6-.2-.7s.7.3.8.7c-.1.3-.3.3-.6 0z"/><path fill="#8d8c8c" d="M348.6 153.5h.6c.1.1.1.3 0 .4.1.2.2.5.1.8l-.1.1-.1-.1c-.5-.3-.5-.8-.5-1.2z"/><path fill="#fff" d="M349.4 155.8c.4.3.5.9.3 1.4-.3-.5-.4-1-.3-1.4zM350.2 155.2c-.2-.1-.4-.3-.4-.6.3.1.4.3.4.6z"/><path fill="#fff" d="m349.4 154.7-.1-.8c.3.1.5.4.6.8h-.5zM290 137.1c3.7-3.3 6.4-7.4 12.5-6.5-2.2 1.9-3.3 3.8-3.2 6.3.1 1-.7 1-1.3 1-2.7 0-5.4-.2-8-.8zM348.2 135.2c-.8.9-1.4 1.9-1.7 3.1-.2 1.1-1 .9-1.7.7-1-.3-.5-1-.2-1.5.5-1.2 1.4-2.2 2.5-2.9.6-.4 1.1-.5 1.1.6z"/><path fill="#adadad" d="M348.2 135.2c-.1-.7-.7-.6-1.2-.6.7-.9 1.5-.7 2.4-.5-.2.5-.6.9-1.2 1.1z"/><path d="M133.7 270.3c-.2 21.1-19.2 33.6-37.7 26.1-5.7-2.3-10.9-5.8-15.1-10.3-10.3-10.8-10-27.8.8-38.2 7.1-6.8 17.3-9.2 26.7-6.3 2.4.6 4.8 1.4 7.1 2.4 11.5 5.7 17.6 15 18.2 26.3z"/><path fill="#ffd574" d="M100.5 292.1c-12.7.3-24.2-10.4-24.5-23.6-.6-13.6 10-25.1 23.6-25.6s25.1 10 25.6 23.6c.6 13.6-10 25.1-23.6 25.6h-1.1zM126.1 276.8c1.3.3 1.8 1.1 2.7 1.4 1.5.5 1.3 1.5.8 2.6-1.7 3.9-1.2 3.4-4.6 1.1-.6-.3-.9-1-.6-1.6 0-.1.1-.2.2-.3.5-.9 1-2 1.5-3.2zM130.5 276.4c-3.8-1.8-3.8-1.8-2.9-6.5 4.1 1.4 4.4 3.2 2.9 6.5zM120.9 285.8c.4-1 1.1-1.8 1.9-2.5.9.4 1.8.9 2.5 1.6.9.5 1.2 1.7.6 2.6-.3.4-.6.7-1.1.8-.5.2-.9-.1-1.2-.4-.9-.6-1.8-1.4-2.7-2.1zM130.8 268.4c-2.4-.6-3.6-2-3.4-4.4.1-.8-.5-1.6-.2-2.4 2.7.7 3.4 2 3.6 6.8zM116.8 289.3c.4-.4.9-.7 1.3-1.1.8-.9 1.6-.8 2.3 0 .3.3.7.6 1 .9s1.5.7.8 1.7c-.5 1-1.7 1.3-2.7.8-.1-.1-.2-.1-.3-.2-.7-.6-1.4-1.3-2.4-2.1zM111.9 292.4c3.2-2.1 3.2-2.1 5.9 1.1-3.3 2-3 1.5-5.9-1.1zM106.4 294.1c2.1-1.2 3.8-.9 5.1 1.3-2.8 1.2-3.4 1.1-5.1-1.3zM125.2 254.6l1.8 2.4c.3.4.5.8.5 1.3-.8.4-1.3 0-1.7-.7-.5-1-.9-2-1.3-3 .1-.2.4-.3.6-.1 0 .1 0 .1.1.1zM100.3 295.1c2.4-.7 2.4-.7 3.4.7-1.1 0-2.3-.2-3.4-.7zM123.3 253c-.3-.3-.9-.6-.4-.9s.8.4 1.1.9c-.1.2-.4.3-.6.2 0-.1 0-.1-.1-.2z"/><path fill="#ffd574" d="M125.2 254.6h-.7c-.3 0-.4-.3-.4-.5-.2-.2-.2-.5 0-.7l.1-.1c.4.3.8.8 1 1.3z"/><path fill="#ffd574" d="M124.1 253.4c0 .2 0 .5-.1.7-.3-.3-.6-.7-.7-1.2h.7c.1.2.1.4.1.5z"/><path fill="#020101" d="M92.7 271.9c-1.2-.8-2.4-1.7-3.5-2.7-.8-.8-1.4-1.8-1.6-2.9-.3-2.3 1.3-3.6 3.4-2.8.7.2 1.1.7 1.1 1.4-.1.9-.7 1-1.4.9-.3 0-.5-.1-.7.5.8 1.4 2 2.5 3.5 3.1.5.3 1.1.2 1.5-.3.4-.4.7-.9 1.1-1.3 2.3-2.9 2.3-2.9.5-6.1-.6-.9-1-1.9-1.4-3-.9-3.1.8-5.2 4-5.1 1.5 0 3 .2 4.4.8 1.1.5 2 .8 2.8-.6.3-.6 1.1-1.2 1.9-.5.5.5.6 1.3.1 1.8l-.2.2c-1.1 1.1-.5 1.9.3 2.8.9.9 1.6 2.1 1.9 3.4.3 2-1.2 3.5-2.9 2.9-.8-.3-1.6-.8-1.5-1.8s1-1 1.7-1.1c0-.6-.3-1.1-.7-1.5-.3-.4-.6-.7-1-1.2-1.7 1.5-2.6 3.4-3.9 5-.6.8-.2 1.4.2 2 .8 1.1 1.3 2.5 1.4 3.9 0 2.6-1.3 4-3.9 3.9-1.1 0-2.2-.2-3.3-.6-.9-.4-1.9-.1-2.4.8-.6.8-1.3 1.6-2 2.3-.4.4-1 .4-1.4.1l-.1-.1c-.4-.3-.4-.9-.1-1.3.6-.8 1.3-1.7 2.2-2.9z"/><path fill="#ffd574" d="M100.1 262.6c-1.2-1.3-2.1-2.9-2.6-4.6-.3-1 .1-1.6 1.2-1.7h2c3.2.3 3.4.8 1.6 3.4-.7.9-1.4 1.8-2.2 2.9zM99.7 267.1c.4.4.6.5.6.7.5 1.1 1.5 2.3.4 3.3s-2.6.5-4-.3l3-3.7z"/><path d="M226.7 36c-.2 21.1-19.2 33.6-37.7 26.1-5.7-2.3-10.9-5.8-15.1-10.3-10.3-10.8-10-27.8.8-38.2 7.1-6.8 17.3-9.2 26.7-6.3 2.4.6 4.8 1.4 7.1 2.4 11.5 5.7 17.6 15.1 18.2 26.3z"/><path fill="#ffd574" d="M193.5 57.8c-12.7.3-24.2-10.4-24.5-23.6-.6-13.6 10-25.1 23.6-25.6s25.1 10 25.6 23.6-10 25.1-23.6 25.6h-1.1zM219.1 42.5c1.3.3 1.9 1.1 2.7 1.4 1.5.5 1.3 1.5.8 2.6-1.7 3.9-1.2 3.4-4.6 1.1-.6-.3-.9-1-.6-1.6 0-.1.1-.2.2-.3.5-.9 1-2 1.5-3.2zM223.5 42.1c-3.8-1.8-3.8-1.8-2.9-6.5 4.1 1.4 4.4 3.2 2.9 6.5zM213.9 51.5c.4-1 1.1-1.8 1.9-2.5.9.4 1.8.9 2.5 1.6.9.5 1.2 1.7.6 2.6-.3.4-.6.7-1.1.8-.5.2-.9-.1-1.2-.4-.9-.6-1.8-1.4-2.7-2.1zM223.8 34.1c-2.4-.7-3.6-2-3.4-4.4.1-.8-.5-1.6-.2-2.4 2.7.7 3.5 2 3.6 6.8zM209.8 55c.4-.4.9-.7 1.3-1.1.8-.9 1.6-.8 2.3 0 .3.3.7.6 1 .9.4.5 1.5.7.8 1.7-.5 1-1.7 1.3-2.7.8-.1-.1-.2-.1-.3-.2-.7-.6-1.4-1.3-2.4-2.1zM204.9 58c3.2-2.1 3.2-2.1 5.9 1.1-3.3 2.1-2.9 1.7-5.9-1.1zM199.4 59.8c2.1-1.2 3.8-.9 5.1 1.3-2.8 1.2-3.4 1.1-5.1-1.3zM218.2 20.4l1.8 2.4c.3.4.5.8.5 1.3-.8.4-1.4 0-1.7-.7-.5-1-.9-2-1.3-3 .1-.2.4-.3.6-.1 0 0 .1 0 .1.1zM193.3 60.8c2.4-.7 2.4-.7 3.4.7-1.1 0-2.3-.2-3.4-.7zM216.3 18.7c-.3-.3-.9-.6-.4-.9s.9.4 1.1.9c-.1.2-.4.3-.6.2 0-.1 0-.1-.1-.2z"/><path fill="#ffd574" d="M218.2 20.4h-.7c-.3 0-.4-.3-.4-.5-.2-.2-.2-.5 0-.7l.1-.1c.4.2.8.7 1 1.3z"/><path fill="#ffd574" d="M217.1 19.1c0 .3-.1.5-.1.7-.4-.3-.6-.7-.7-1.2h.7c.1.2.1.4.1.5z"/><path fill="#020101" d="M185.7 37.6c-1.2-.8-2.4-1.7-3.5-2.7-.8-.8-1.4-1.8-1.6-2.9-.3-2.3 1.3-3.6 3.4-2.8.6.3 1.2.7 1.1 1.4s-.7 1-1.4.9c-.3 0-.5-.1-.7.5.8 1.4 2 2.5 3.5 3.1.5.3 1.1.2 1.4-.2.4-.4.7-.9 1.1-1.3 2.3-2.9 2.3-2.9.5-6.1-.6-.9-1-2-1.4-3-.9-3.1.8-5.2 4-5.1 1.5 0 3 .2 4.4.8 1.1.5 2 .8 2.8-.6.4-.6 1.1-1.2 1.9-.5.5.5.6 1.3.1 1.8l-.2.2c-1.1 1.1-.5 1.9.3 2.8.9.9 1.6 2.1 1.9 3.4.3 2-1.2 3.5-2.9 2.9-.8-.3-1.6-.8-1.5-1.8s1-1 1.7-1.1c0-.6-.3-1.1-.6-1.5-.3-.4-.6-.7-1-1.1-1.7 1.5-2.6 3.4-3.9 5-.6.7-.2 1.4.2 2 .8 1.1 1.3 2.5 1.4 3.9 0 2.7-1.3 4-3.9 3.9-1.1 0-2.2-.2-3.3-.6-.8-.5-1.9-.2-2.4.7-.6.8-1.3 1.6-2 2.3-.4.4-1 .4-1.4.1l-.1-.1c-.4-.3-.4-.9-.1-1.3.6-.9 1.3-1.8 2.2-3z"/><path fill="#ffd574" d="M193.1 28.3c-1.2-1.3-2.1-2.9-2.6-4.7-.3-1 .1-1.7 1.2-1.7h1.9c3.2.3 3.4.8 1.6 3.4-.6 1-1.3 1.9-2.1 3zM192.7 32.8c.4.4.6.5.6.7.5 1.1 1.5 2.3.4 3.3s-2.6.5-4-.3l3-3.7z"/><path d="M457.4 79.3c-.2 21.2-19.2 33.6-37.7 26.2-5.7-2.3-10.9-5.8-15.1-10.3-10.3-10.8-10-27.9.8-38.2 7.1-6.8 17.3-9.2 26.6-6.3 2.4.6 4.8 1.4 7.1 2.4 11.6 5.6 17.6 14.9 18.3 26.2z"/><path fill="#ffd574" d="M424.2 101.1c-12.7.3-24.2-10.4-24.5-23.6-.6-13.6 10-25.1 23.6-25.6 13.6-.6 25.1 10 25.6 23.6s-10 25.1-23.6 25.6h-1.1zM449.8 85.8c1.3.3 1.8 1.1 2.7 1.4 1.5.6 1.3 1.5.8 2.6-1.7 3.9-1.2 3.4-4.6 1.1-.6-.3-.9-1-.6-1.6 0-.1.1-.2.2-.3.5-.9 1-2 1.5-3.2zM454.2 85.4c-3.8-1.8-3.8-1.8-2.9-6.5 4.1 1.4 4.4 3.2 2.9 6.5zM444.6 94.8c.4-1 1.1-1.8 1.9-2.5.9.4 1.8.9 2.5 1.6.9.5 1.2 1.7.6 2.6-.3.4-.6.7-1.1.8-.5.2-.9-.1-1.2-.4-.9-.6-1.8-1.4-2.7-2.1zM454.5 77.4c-2.4-.6-3.6-2-3.4-4.4.1-.8-.5-1.6-.2-2.4 2.7.7 3.4 2 3.6 6.8zM440.5 98.3c.4-.4.9-.7 1.3-1.1.8-.9 1.5-.8 2.3 0 .3.3.7.6 1 .9s1.5.7.8 1.7c-.5 1-1.7 1.3-2.7.8-.1-.1-.2-.1-.3-.2-.7-.6-1.4-1.3-2.4-2.1zM435.6 101.3c3.2-2.1 3.2-2.1 5.9 1.1-3.3 2.1-3 1.6-5.9-1.1zM430.1 103.1c2.1-1.2 3.8-.9 5.1 1.3-2.8 1.2-3.4 1-5.1-1.3zM448.9 63.7l1.8 2.4c.3.4.5.8.5 1.3-.8.4-1.4 0-1.7-.7-.5-1-.9-2-1.3-3 .1-.2.4-.3.6-.1l.1.1zM424 104.1c2.4-.7 2.4-.7 3.5.7-1.2 0-2.4-.2-3.5-.7zM447 62c-.3-.3-.9-.6-.4-.9s.9.4 1.1.9c-.1.2-.4.3-.6.2 0-.1-.1-.1-.1-.2z"/><path fill="#ffd574" d="M448.9 63.7h-.7c-.3 0-.4-.3-.4-.5-.2-.2-.2-.5 0-.7l.1-.1c.4.2.8.7 1 1.3z"/><path fill="#ffd574" d="M447.8 62.4c0 .2 0 .5-.1.7-.3-.3-.6-.7-.7-1.2h.7c.1.2.1.4.1.5z"/><path fill="#020101" d="M416.4 80.9c-1.2-.8-2.4-1.7-3.5-2.7-.8-.8-1.4-1.8-1.6-2.9-.3-2.3 1.3-3.6 3.4-2.7.6.2 1.1.7 1.1 1.4-.1.9-.7 1-1.4.9-.3 0-.5-.1-.7.5.8 1.4 2 2.5 3.5 3.1.5.3 1.1.2 1.5-.3.4-.4.7-.9 1.1-1.3 2.3-2.9 2.3-2.9.5-6.1-.6-.9-1-2-1.4-3-.9-3.1.8-5.2 4-5.1 1.5 0 3 .2 4.4.8 1.1.5 2 .8 2.8-.6.4-.6 1.1-1.2 1.9-.5.5.5.6 1.3.1 1.8l-.2.2c-1.1 1.1-.5 1.9.3 2.8.9.9 1.5 2.1 1.8 3.4.3 2-1.2 3.5-2.9 2.9-.8-.3-1.6-.8-1.5-1.8s1-1 1.7-1.1c0-.6-.3-1.1-.7-1.5-.3-.4-.6-.7-1-1.2-1.7 1.5-2.6 3.4-3.9 5-.6.7-.2 1.4.2 2 .8 1.1 1.3 2.5 1.4 3.9 0 2.7-1.3 4-3.9 3.9-1.1 0-2.2-.2-3.3-.6-.9-.5-1.9-.1-2.4.7-.6.8-1.3 1.6-2 2.3-.4.4-1 .4-1.4.1l-.1-.1c-.4-.3-.4-.9-.1-1.3.6-.8 1.4-1.7 2.3-2.9z"/><path fill="#ffd574" d="M423.7 71.6c-1.2-1.3-2.1-2.9-2.6-4.6-.3-1 .1-1.7 1.2-1.7.6-.1 1.3-.1 2 0 3.2.3 3.4.8 1.6 3.4-.7.9-1.3 1.8-2.2 2.9zM423.4 76.1c.4.4.6.5.6.7.5 1.1 1.5 2.3.4 3.3s-2.5.6-4-.3l3-3.7z"/><path d="M427.9 342.3c-.2 21.1-19.2 33.6-37.7 26.1-5.7-2.3-10.9-5.8-15.1-10.3-10.3-10.7-10-27.8.7-38.2 7.1-6.8 17.3-9.2 26.7-6.3 2.4.6 4.8 1.4 7.1 2.4 11.6 5.8 17.6 15.1 18.3 26.3z"/><path fill="#ffd574" d="M394.7 364.2c-12.7.3-24.2-10.4-24.5-23.6-.6-13.6 10-25.1 23.6-25.6s25.1 10 25.6 23.6-10 25.1-23.6 25.6h-1.1zM420.3 348.8c1.3.3 1.9 1.1 2.7 1.4 1.5.5 1.3 1.5.8 2.6-1.7 3.9-1.2 3.4-4.6 1.1-.6-.3-.9-1-.6-1.6 0-.1.1-.2.2-.3.5-.9 1-2 1.5-3.2zM424.7 348.5c-3.7-1.8-3.7-1.8-2.9-6.5 4.1 1.4 4.4 3.1 2.9 6.5zM415.1 357.8c.4-1 1.1-1.8 1.9-2.5.9.4 1.8.9 2.5 1.6.9.5 1.2 1.7.6 2.6-.3.4-.6.7-1.1.8-.5.2-.9-.1-1.2-.4-.9-.6-1.8-1.3-2.7-2.1zM425 340.4c-2.4-.6-3.6-2-3.4-4.4.1-.8-.5-1.6-.2-2.4 2.7.7 3.4 2.1 3.6 6.8zM411 361.4c.4-.4.9-.7 1.3-1.1.8-.9 1.5-.8 2.3 0 .3.3.7.6 1 .9s1.5.7.8 1.7c-.5 1-1.7 1.3-2.7.8-.1-.1-.2-.1-.3-.2-.7-.6-1.4-1.3-2.4-2.1zM406.1 364.4c3.2-2.1 3.2-2.1 5.9 1.1-3.3 2-3 1.6-5.9-1.1zM400.6 366.1c2.1-1.2 3.8-.9 5.1 1.3-2.8 1.2-3.4 1.1-5.1-1.3zM419.4 326.7l1.8 2.4c.3.4.5.8.5 1.3-.8.4-1.4 0-1.7-.7-.5-1-.9-2-1.3-3 .1-.2.4-.3.6-.1 0 0 0 .1.1.1zM394.5 367.2c2.4-.7 2.4-.7 3.5.7-1.2 0-2.4-.3-3.5-.7zM417.5 325c-.3-.3-.9-.6-.4-.9s.8.4 1.1.9c-.1.2-.4.3-.6.2 0-.1 0-.1-.1-.2z"/><path fill="#ffd574" d="M419.4 326.7h-.7c-.3 0-.4-.3-.4-.5-.2-.2-.2-.5 0-.7l.1-.1c.4.3.8.8 1 1.3z"/><path fill="#ffd574" d="M418.3 325.5c0 .2 0 .5-.1.7-.3-.3-.6-.7-.7-1.2h.7c.1.2.1.3.1.5z"/><path fill="#020101" d="M386.9 344c-1.2-.8-2.4-1.7-3.5-2.7-.8-.8-1.4-1.8-1.6-2.9-.3-2.3 1.3-3.6 3.4-2.8.6.3 1.2.7 1.1 1.4s-.7 1-1.4.9c-.3 0-.5-.1-.7.5.8 1.4 2 2.5 3.5 3.1.5.3 1.1.2 1.5-.3.4-.4.7-.9 1.1-1.3 2.3-2.9 2.3-2.9.5-6.1-.6-.9-1-1.9-1.4-3-.9-3.1.8-5.2 4-5.1 1.5 0 3 .2 4.4.8 1.1.5 2 .8 2.8-.6.4-.6 1.1-1.2 1.9-.5.5.5.6 1.3.1 1.8l-.2.2c-1.1 1.1-.5 1.9.3 2.8.9.9 1.6 2.1 1.9 3.4.3 2-1.2 3.5-2.9 2.9-.8-.3-1.6-.8-1.5-1.8s1-1 1.7-1.1c0-.6-.3-1.1-.7-1.5-.3-.4-.6-.7-1-1.2-1.7 1.5-2.6 3.4-3.9 5-.6.8-.2 1.4.2 2 .8 1.1 1.3 2.5 1.4 3.9 0 2.6-1.3 4-3.9 3.9-1.1 0-2.2-.2-3.3-.6-.9-.5-1.9-.1-2.4.7-.6.8-1.3 1.6-2 2.3-.4.4-1 .4-1.4.1l-.1-.1c-.4-.3-.4-.9-.1-1.3.6-.7 1.3-1.7 2.2-2.8z"/><path fill="#ffd574" d="M394.3 334.7c-1.2-1.4-2.1-2.9-2.6-4.7-.3-1 .1-1.6 1.2-1.7h2c3.2.3 3.4.8 1.6 3.4-.7.9-1.4 1.8-2.2 3zM393.9 339.2c.4.4.6.5.6.7.5 1.1 1.5 2.3.4 3.3s-2.5.5-4-.3l3-3.7z"/></svg>